Coordinates
version=1
nRows=29
nColumns=24
inDegrees=yes

Units are S.I. units (second, meters, Newtons, ...)
Angles are in degrees.

endheader
time	pelvis_tilt	pelvis_list	pelvis_rotation	pelvis_tx	pelvis_ty	pelvis_tz	hip_flexion_r	hip_adduction_r	hip_rotation_r	knee_angle_r	ankle_angle_r	subtalar_angle_r	mtp_angle_r	hip_flexion_l	hip_adduction_l	hip_rotation_l	knee_angle_l	ankle_angle_l	subtalar_angle_l	mtp_angle_l	lumbar_extension	lumbar_bending	lumbar_rotation
      3.75000000	     -3.36993445	     -6.39928030	    -36.08599574	     -0.29094675	      0.66196452	     -0.11091580	    -20.15446619	     -2.68786052	     17.86349098	    -12.46944716	      3.19477263	     -0.27255488	      0.00000000	     22.82527135	    -19.01601203	    -23.49040435	     -2.00106757	     -1.42313503	    -15.05229687	      0.00000000	    -12.00514493	      2.49082431	     30.43755262
      3.76000000	     -2.75001875	     -5.83851559	    -35.58496675	     -0.26835296	      0.66157431	     -0.11225410	    -19.55918564	     -3.67814666	     15.76634704	    -16.44175875	     -0.91202790	     -1.66477878	      0.00000000	     22.10841321	    -17.49937017	    -26.19724132	     -3.95923165	     -2.92275306	    -16.88003084	      0.00000000	    -11.36035280	      2.26335457	     29.75439373
      3.77000000	     -2.16734305	     -5.11483037	    -34.87618677	     -0.24610373	      0.66088428	     -0.11371861	    -18.63020374	     -4.68470626	     13.60972880	    -20.61861701	     -5.75213788	     -3.88525763	      0.00000000	     21.44369108	    -15.80230693	    -27.86949066	     -5.59895241	     -5.36410195	    -19.15906083	      0.00000000	    -10.73333161	      1.81543827	     28.81121432
      3.78000000	     -1.48475414	     -4.11548895	    -33.87059155	     -0.22447855	      0.66011467	     -0.11534212	    -17.41186631	     -5.83981059	     11.36313425	    -25.05318146	    -10.97715208	     -6.83499892	      0.00000000	     20.89686407	    -13.74223735	    -28.38842975	     -7.04978542	     -8.03981329	    -21.42301431	      0.00000000	    -10.25961023	      0.87970781	     27.52803405
      3.79000000	     -0.61490254	     -2.73873222	    -32.47127654	     -0.20363882	      0.65942219	     -0.11720469	    -15.94530366	     -7.24323960	      9.04187313	    -29.80107019	    -16.16993985	    -10.25183979	      0.00000000	     20.56245508	    -11.15685873	    -27.64263824	     -8.58860840	    -10.31891724	    -23.96834509	      0.00000000	    -10.03958776	     -0.70539765	     25.62113609
      3.80000000	      0.53446910	     -1.06495020	    -30.75792842	     -0.18380585	      0.65911030	     -0.11913825	    -14.41215541	     -8.79805498	      7.10545777	    -34.82646892	    -21.29300366	    -14.23903173	      0.00000000	     20.36797221	     -8.21926443	    -26.59361781	    -10.65998391	    -10.53458219	    -24.93621493	      0.00000000	    -10.31900631	     -2.96870584	     23.32186214
      3.81000000	      1.84960176	      0.86236082	    -28.66164160	     -0.16488044	      0.65912753	     -0.12128287	    -12.75453202	    -10.39997863	      5.40218711	    -40.15318575	    -25.53434563	    -17.82009149	      0.00000000	     20.24220857	     -4.89991656	    -25.10451836	    -13.06558737	     -9.44738914	    -25.27096474	      0.00000000	    -11.08469511	     -5.69558951	     20.43129473
      3.82000000	      3.22908491	      2.88991858	    -26.34934801	     -0.14681389	      0.65953938	     -0.12353245	    -10.98488840	    -11.85798940	      4.19972652	    -45.63728936	    -28.38518827	    -20.60286582	      0.00000000	     19.93910029	     -1.41731274	    -23.72372008	    -15.48359654	     -7.02326131	    -24.47378725	      0.00000000	    -12.34900052	     -8.60535245	     17.26564252
      3.83000000	      4.49294735	      4.92533312	    -24.04813666	     -0.12947387	      0.66032738	     -0.12578684	     -8.93082084	    -13.02881098	      3.74934825	    -51.14696831	    -28.93502035	    -21.70761188	      0.00000000	     19.25875732	      2.03605100	    -22.76288523	    -17.35050344	     -3.61297360	    -22.24149214	      0.00000000	    -13.89435573	    -11.40869300	     13.89846913
      3.84000000	      5.39910925	      6.87236581	    -21.83476310	     -0.11268925	      0.66133738	     -0.12815207	     -6.38493331	    -13.81046837	      3.95647004	    -56.46003770	    -27.33949944	    -21.22145216	      0.00000000	     18.19368260	      5.39341176	    -21.68140786	    -18.14078617	     -0.90479067	    -20.60819257	      0.00000000	    -15.36487861	    -13.82259608	     10.68726570
      3.85000000	      6.01406661	      8.59664834	    -19.85496197	     -0.09629558	      0.66262656	     -0.13050814	     -3.48306503	    -14.15941253	      4.83045978	    -61.33540389	    -24.34411472	    -19.75176228	      0.00000000	     16.64043647	      8.43979267	    -20.82544466	    -17.89311217	      1.38398273	    -18.96673111	      0.00000000	    -16.68425750	    -15.75154075	      7.84131529
      3.86000000	      6.28814596	      9.97539023	    -18.15821247	     -0.08011239	      0.66409863	     -0.13281411	     -0.23797833	    -13.98680103	      6.25330199	    -65.63826685	    -20.48190646	    -17.63327907	      0.00000000	     14.69193729	     11.01866103	    -19.99542220	    -16.72868157	      3.46406205	    -17.11448837	      0.00000000	    -17.60261246	    -17.08723489	      5.76726161
      3.87000000	      6.29931012	     10.99068528	    -16.59636708	     -0.06402209	      0.66570090	     -0.13513952	      3.15079887	    -13.35156267	      7.86106160	    -69.24026384	    -16.66041965	    -15.66774291	      0.00000000	     12.48730397	     13.09045008	    -19.25184820	    -15.01823098	      5.12434576	    -15.19369126	      0.00000000	    -18.14155330	    -17.84903363	      4.23777225
      3.88000000	      6.08380442	     11.61971611	    -15.03444581	     -0.04797814	      0.66740433	     -0.13754161	      6.55869658	    -12.30159526	      9.37643990	    -72.07559452	    -13.38411447	    -14.24752712	      0.00000000	     10.15977621	     14.63039456	    -18.41776582	    -13.07301540	      6.55867159	    -13.11959723	      0.00000000	    -18.33394390	    -18.04336519	      3.18387142
      3.89000000	      5.66853426	     11.90919760	    -13.31143054	     -0.03199029	      0.66915918	     -0.14009720	      9.91158516	    -10.98284448	     10.54613904	    -74.12077814	    -10.79452404	    -13.58685044	      0.00000000	      7.86771892	     15.66918329	    -17.38027796	    -11.19375257	      7.82396970	    -10.92223253	      0.00000000	    -18.27686664	    -17.73789686	      2.33710506
      3.90000000	      5.07320696	     11.90471540	    -11.27665136	     -0.01610399	      0.67091322	     -0.14288795	     13.17137313	     -9.55847441	     11.18872728	    -75.36991855	     -8.84054995	    -13.72730980	      0.00000000	      5.72296931	     16.24985579	    -15.97279521	     -9.57290455	      8.94762244	     -8.76034402	      0.00000000	    -18.09665398	    -16.98734126	      1.36970269
      3.91000000	      4.40230393	     11.62837868	     -8.88439991	     -0.00034052	      0.67266522	     -0.14594260	     16.23164883	     -8.18474579	     11.24559341	    -75.81148464	     -7.49631067	    -14.70688602	      0.00000000	      3.63430090	     16.44634424	    -13.85617340	     -8.15397927	      9.81110895	     -7.20331941	      0.00000000	    -17.98336871	    -15.84432972	      0.06154223
      3.92000000	      3.56764383	     11.14087270	     -6.14089289	      0.01518161	      0.67419816	     -0.14923930	     19.26668452	     -6.98357785	     10.79177889	    -75.54005166	     -6.30315967	    -15.97515888	      0.00000000	      1.86193051	     16.25309912	    -11.36382604	     -7.12865800	     10.57198028	     -5.81475631	      0.00000000	    -17.87611064	    -14.37702767	     -1.74716774
      3.93000000	      2.72040748	     10.45347250	     -3.14857538	      0.03054272	      0.67552337	     -0.15270766	     22.11294446	     -6.04263193	      9.91379961	    -74.51419833	     -5.68230952	    -18.00271439	      0.00000000	      0.14120074	     15.76969658	     -8.16347917	     -6.18089376	     11.14347466	     -5.27215265	      0.00000000	    -17.87436368	    -12.64371592	     -3.97533989
      3.94000000	      1.92004290	      9.61157389	     -0.03719276	      0.04572652	      0.67655242	     -0.15625087	     24.75236970	     -5.41308294	      8.74625342	    -72.80452748	     -5.26917421	    -20.32027294	      0.00000000	     -1.56262329	     15.03374705	     -4.40090095	     -5.24466710	     11.55247044	     -5.56925721	      0.00000000	    -17.97641043	    -10.71656408	     -6.50301466
      3.95000000	      1.11439304	      8.59945199	      3.07061486	      0.06076224	      0.67719381	     -0.15975259	     27.24348498	     -5.03594502	      7.38653059	    -70.41704293	     -5.11826035	    -22.78503216	      0.00000000	     -3.13425343	     14.00470863	     -0.50361425	     -4.30653199	     11.61216604	     -6.56206641	      0.00000000	    -18.01953213	     -8.60082187	     -9.14011719
      3.96000000	      0.33236429	      7.66248434	      5.99870898	      0.07570195	      0.67734281	     -0.16302712	     29.57571178	     -5.06022388	      6.07500916	    -67.43473149	     -5.20956428	    -25.41049942	      0.00000000	     -4.55346013	     12.92939976	      3.03897414	     -3.44474792	     12.09706956	     -7.11895027	      0.00000000	    -17.98289009	     -6.66578894	    -11.60665469
      3.97000000	     -0.45991351	      6.64896487	      8.68716092	      0.09061481	      0.67706301	     -0.16602831	     31.70329327	     -5.26899980	      4.75694660	    -63.75462692	     -5.67550718	    -28.11552023	      0.00000000	     -5.79668706	     11.68503563	      6.14029124	     -2.56080828	     12.19577984	     -8.03849885	      0.00000000	    -17.76825516	     -4.74133627	    -13.85938625
      3.98000000	     -1.22435169	      5.80002479	     11.05759841	      0.10559446	      0.67633795	     -0.16868356	     33.55559265	     -5.80418595	      3.54966284	    -59.44485430	     -6.17651982	    -30.61305700	      0.00000000	     -6.94851530	     10.53501317	      8.68536610	     -1.70639247	     12.52624974	     -8.54098270	      0.00000000	    -17.45444737	     -3.15841589	    -15.75679394
      3.99000000	     -1.95377029	      5.09953533	     13.11709781	      0.12073075	      0.67523787	     -0.17100720	     35.03558545	     -6.57160332	      2.38977647	    -54.43118872	     -6.67741297	    -32.76706079	      0.00000000	     -8.04006536	      9.48329141	     10.64595890	     -0.90138148	     12.91679308	     -8.74807468	      0.00000000	    -17.06319707	     -1.88455989	    -17.34653344
      4.00000000	     -2.60200882	      4.58027852	     14.90980180	      0.13611840	      0.67384648	     -0.17302761	     36.01056874	     -7.53589851	      1.17353440	    -48.67034146	     -6.98784508	    -34.28041007	      0.00000000	     -9.15000951	      8.56429697	     12.06448311	     -0.18095788	     13.35851436	     -8.64152544	      0.00000000	    -16.68887247	     -0.94283849	    -18.71051252
      4.01000000	     -3.19070127	      4.26807125	     16.48729087	      0.15186665	      0.67214819	     -0.17480387	     36.43735569	     -8.65399938	     -0.15616198	    -42.16046907	     -6.90014636	    -34.83965643	      0.00000000	    -10.29871560	      7.81244521	     13.10611115	      0.43193049	     13.89450017	     -8.25691585	      0.00000000	    -16.31251610	     -0.33522459	    -19.91995840
      4.02000000	     -3.77737657	      4.15770855	     17.94760400	      0.16804339	      0.67011016	     -0.17640505	     36.31550527	     -9.89648050	     -1.72319486	    -34.91693258	     -6.77438334	    -34.47603685	      0.00000000	    -11.41592291	      7.23871353	     13.88749946	      0.85417116	     14.40401885	     -7.82344715	      0.00000000	    -15.88478436	     -0.05876836	    -21.11474406
      4.03000000	     -3.85843769	      4.26919508	     19.26180311	      0.18488463	      0.66816054	     -0.17781929	     35.11084112	    -11.05614230	     -3.74255212	    -27.09711818	     -6.00787256	    -32.50155466	      0.00000000	    -13.14873893	      6.65156241	     14.57849377	      1.28190675	     14.71635394	     -7.36134614	      0.00000000	    -15.97674990	      0.06084806	    -22.18063622
